{"title":"Tracers (2015) 720p x264 AAC ITA SUB ITA ENG","uid":12765062,"size":3691802561,"categoryP":"video","categoryS":"movies","magnet":"?xt=urn:btih:8a637c8cd2168741e8ae66614ae0276afa808d32&amp;dn=Tracers+%282015%29+720p+x264+AAC+ITA+SUB+ITA+ENG&amp;tr=udp%3A%2F%2Ftracker.leechers-paradise.org%3A6969&amp;tr=udp%3A%2F%2Fzer0day.ch%3A1337&amp;tr=udp%3A%2F%2Fopen.demonii.com%3A1337&amp;tr=udp%3A%2F%2Ftracker.coppersurfer.tk%3A6969&amp;tr=udp%3A%2F%2Fexodus.desync.com%3A6969","seeders":0,"leechers":1,"uploader":"xtron197777","files":1,"time":1447591489,"description":"Tracers (2015) 720p x264 AAC ITA SUB ITA ENG\r\n\r\n\r\n\r\n-: Cast :-\r\n\r\nTaylor Lautner as Cam\r\nMarie Avgeropoulos as Nikki\r\nAdam Rayner as Miller\r\nRafi Gavron as Dylan\r\nLuciano Acuna Jr. as Tate\r\nJosh Yadon as Jax\r\nJohnny M. Wu as Jhonny\r\nSam Medina as Hu\r\nAmirah Vann as Angie\r\nChristian Steel as Joey\r\nWai Ching Ho as Chen\r\n\r\n-: Trama :-\r\n\r\nCam è un pony che percorre le strade di New York con la sua bicicletta; un giorno investe Nikki, che gli mostra subito dopo la sua abilità quale atleta di parkour. Cam ne subisce il fascino e riesce a rivederla e ad entrare nella gang di cui lei e il fratello fanno parte. Non c'è solo un'attività sportiva a cui applicarsi ma anche azioni illegali a cui Cam finisce con il partecipare un po' per amore e un po' per bisogno ma Miller, il capo della gang, è sempre più esigente.\r\n\r\n-: Info :-\r\n\r\nGeneral \r\nFormat profile : Base Media \r\nCodec ID : isom \r\nFile size : 3.44 GiB \r\nDuration : 1h 34mn \r\nOverall bit rate mode : Variable \r\nOverall bit rate : 5 233 Kbps \r\nEncoded date : UTC 2015-11-15 11:16:01 \r\nTagged date : UTC 2015-11-15 11:16:01 \r\nWriting application : Lavf57.3.100 \r\n\r\nVideo \r\nID : 1 \r\nFormat : AVC \r\nFormat/Info : Advanced Video Codec \r\nFormat profile :    \r\nFormat settings, CABAC : Yes \r\nFormat settings, ReFrames : 4 frames \r\nCodec ID : avc1 \r\nCodec ID/Info : Advanced Video Coding \r\nDuration : 1h 34mn \r\nBit rate : 5 096 Kbps \r\nWidth : 1 280 pixels \r\nHeight : 536 pixels \r\nDisplay aspect ratio : 2.40:1 \r\nFrame rate mode : Variable \r\nFrame rate : 23.976 fps \r\nMinimum frame rate : 23.564 fps \r\nMaximum frame rate : 24.390 fps \r\nColor space : YUV \r\nChroma subsampling : 4:2:0 \r\nBit depth : 8 bits \r\nScan type : Progressive \r\nBits/(Pixel*Frame) : 0.310 \r\nStream size : 3.35 GiB (97%) \r\nWriting library : x264 core 146 r2538 121396c \r\nEncoding settings : cabac=1 / ref=2 / deblock=1:-2:-1 / analyse=0x3:0x113 / me=hex / subme=6 / psy=1 / psy_rd=1.00:0.00 / mixed_ref=1 / me_range=16 / chroma_me=1 / trellis=1 / 8x8dct=1 / cqm=0 / deadzone=21,11 / fast_pskip=1 / chroma_qp_offset=-2 / threads=12 / lookahead_threads=2 / sliced_threads=0 / nr=0 / decimate=0 / interlaced=0 / bluray_compat=0 / constrained_intra=0 / bframes=3 / b_pyramid=2 / b_adapt=1 / b_bias=0 / direct=1 / weightb=1 / open_gop=0 / weightp=1 / keyint=240 / keyint_min=24 / scenecut=40 / intra_refresh=0 / rc_lookahead=30 / rc=2pass / mbtree=1 / bitrate=5096 / ratetol=1.0 / qcomp=0.60 / qpmin=0 / qpmax=69 / qpstep=4 / cplxblur=20.0 / qblur=0.5 / vbv_maxrate=50000 / vbv_bufsize=50000 / nal_hrd=none / filler=0 / ip_ratio=1.40 / aq=1:1.00 \r\nEncoded date : UTC 2015-11-15 11:16:01 \r\nTagged date : UTC 2015-11-15 11:16:01 \r\n\r\nAudio \r\nID : 2 \r\nFormat : AAC \r\nFormat/Info : Advanced Audio Codec \r\nFormat profile : LC \r\nCodec ID : 40 \r\nDuration : 1h 34mn \r\nBit rate mode : Constant \r\nBit rate : 128 Kbps \r\nChannel(s) : 2 channels \r\nChannel positions : Front: L R \r\nSampling rate : 48.0 KHz \r\nCompression mode : Lossy \r\nStream size : 85.7 MiB (2%) \r\nLanguage : Italian \r\nEncoded date : UTC 2015-11-15 11:16:01 \r\nTagged date : UTC 2015-11-15 11:16:01 \r\n\r\nText #1 \r\nID : 3 \r\nFormat : Timed Text \r\nMuxing mode : sbtl \r\nCodec ID : tx3g \r\nDuration : 1h 28mn \r\nBit rate mode : Variable \r\nBit rate : 47 bps \r\nStream size : 30.1 KiB (0%) \r\nLanguage : Italian \r\nEncoded date : UTC 2015-11-15 11:16:01 \r\nTagged date : UTC 2015-11-15 11:16:01 \r\n\r\nText #2 \r\nID : 4 \r\nFormat : Timed Text \r\nMuxing mode : sbtl \r\nCodec ID : tx3g \r\nDuration : 1h 28mn \r\nBit rate mode : Variable \r\nBit rate : 47 bps \r\nStream size : 30.5 KiB (0%) \r\nLanguage : English \r\nEncoded date : UTC 2015-11-15 11:16:01 \r\nTagged date : UTC 2015-11-15 11:16:01","torrent":{"xt":"urn:btih:8a637c8cd2168741e8ae66614ae0276afa808d32","amp;dn":"Tracers+%282015%29+720p+x264+AAC+ITA+SUB+ITA+ENG","amp;tr":["udp%3A%2F%2Ftracker.leechers-paradise.org%3A6969","udp%3A%2F%2Fzer0day.ch%3A1337","udp%3A%2F%2Fopen.demonii.com%3A1337","udp%3A%2F%2Ftracker.coppersurfer.tk%3A6969","udp%3A%2F%2Fexodus.desync.com%3A6969"],"infoHash":"8a637c8cd2168741e8ae66614ae0276afa808d32","infoHashBuffer":{"type":"Buffer","data":[138,99,124,140,210,22,135,65,232,174,102,97,74,224,39,106,250,128,141,50]},"announce":[],"urlList":[]}}